<svg width="16" height="16" viewBox="0 0 16 16" fill="none" xmlns="http://www.w3.org/2000/svg">
<path fill-rule="evenodd" clip-rule="evenodd" d="M7.19949 2H8.802C8.91173 2 9.00072 2.08897 9.00072 2.19874C9.00072 4.00722 10.9585 5.13763 12.5247 4.23334C12.6198 4.17848 12.7413 4.21104 12.7961 4.30606L13.5974 5.69395C13.6523 5.789 13.6197 5.91054 13.5247 5.96542C11.9585 6.86968 11.9585 9.13036 13.5247 10.0346C13.6197 10.0895 13.6523 10.2111 13.5974 10.3061L12.7961 11.694C12.7413 11.789 12.6198 11.8216 12.5247 11.7667C10.9585 10.8624 9.00072 11.9928 9.00072 13.8013C9.00072 13.911 8.91176 14 8.80203 14H7.19946C7.0897 14 7.00072 13.911 7.00072 13.8013C7.00072 11.9927 5.04287 10.8624 3.47666 11.7667C3.38157 11.8216 3.25999 11.789 3.20511 11.6939L2.40386 10.3061C2.34898 10.2111 2.38155 10.0895 2.4766 10.0346C4.04285 9.13036 4.04285 6.86969 2.4766 5.96541C2.38155 5.91054 2.34898 5.78899 2.40386 5.69394L3.20511 4.30614C3.26 4.21107 3.38157 4.1785 3.47665 4.23339C5.04289 5.13766 7.00072 4.00733 7.00072 2.19877C7.00072 2.08899 7.08971 2 7.19949 2ZM5.50072 2.19877C5.50072 1.26056 6.26129 0.5 7.19949 0.5H8.802C9.74018 0.5 10.5007 1.26056 10.5007 2.19874C10.5007 2.85256 11.2085 3.26121 11.7747 2.9343C12.5872 2.46522 13.6261 2.7436 14.0952 3.55606L14.8965 4.94395C15.3656 5.75644 15.0872 6.79536 14.2747 7.26445C13.7085 7.59137 13.7085 8.40867 14.2747 8.7356C15.0872 9.20469 15.3656 10.2436 14.8965 11.0561L14.0952 12.444C13.6261 13.2565 12.5872 13.5348 11.7747 13.0657C11.2085 12.7388 10.5007 13.1475 10.5007 13.8013C10.5007 14.7395 9.74019 15.5 8.80203 15.5H7.19946C6.26127 15.5 5.50072 14.7394 5.50072 13.8013C5.50072 13.1474 4.7929 12.7388 4.22666 13.0657C3.41414 13.5348 2.37517 13.2564 1.90607 12.4439L1.10482 11.0561C0.635732 10.2436 0.914112 9.20469 1.7266 8.7356C2.29285 8.40867 2.29285 7.59137 1.7266 7.26445C0.914112 6.79536 0.635733 5.75643 1.10482 4.94394L1.90607 3.55614C2.37518 2.74363 3.41413 2.46525 4.22665 2.93435C4.7929 3.26128 5.50072 2.85262 5.50072 2.19877ZM9.5007 8C9.5007 8.82843 8.82912 9.5 8.0007 9.5C7.17227 9.5 6.5007 8.82843 6.5007 8C6.5007 7.17157 7.17227 6.5 8.0007 6.5C8.82912 6.5 9.5007 7.17157 9.5007 8ZM11.0007 8C11.0007 9.65685 9.65755 11 8.0007 11C6.34384 11 5.0007 9.65685 5.0007 8C5.0007 6.34315 6.34384 5 8.0007 5C9.65755 5 11.0007 6.34315 11.0007 8Z" fill="white"/>
</svg>
